<?xml version="1.0" encoding="UTF-8" standalone="no"?>
<svg width="21px" height="20px" viewBox="0 0 21 20" version="1.1" xmlns="http://www.w3.org/2000/svg" xmlns:xlink="http://www.w3.org/1999/xlink">
    <!-- Generator: Sketch 41.2 (35397) - http://www.bohemiancoding.com/sketch -->
    <title>Fill 1</title>
    <desc>Created with Sketch.</desc>
    <defs></defs>
    <g id="Page-1" stroke="none" stroke-width="1" fill="none" fill-rule="evenodd">
        <g id="Profile" transform="translate(-234.000000, -704.000000)" fill="#6E79D6">
            <g id="Group-5" transform="translate(214.000000, 291.000000)">
                <g id="Profile-Info">
                    <path d="M30.2521279,413 C24.5904205,413 20,417.590421 20,423.253387 C20,427.783382 22.9375418,431.626042 27.0118311,432.98246 C27.5248152,433.076245 27.7117554,432.759642 27.7117554,432.487729 C27.7117554,432.24477 27.7029434,431.599606 27.697908,430.744213 C24.8459684,431.36357 24.2442349,429.369541 24.2442349,429.369541 C23.7778286,428.185587 23.1055992,427.869614 23.1055992,427.869614 C22.1746747,427.233891 23.1760951,427.24648 23.1760951,427.24648 C24.2052104,427.318864 24.7465187,428.30329 24.7465187,428.30329 C25.661078,429.869937 27.1465288,429.417378 27.7306382,429.155536 C27.8237936,428.492748 28.0881535,428.040818 28.3814671,427.784641 C26.104825,427.525946 23.7111092,426.646005 23.7111092,422.717114 C23.7111092,421.59799 24.1107961,420.682802 24.7666604,419.965883 C24.6609165,419.706558 24.3090661,418.664225 24.8667395,417.252418 C24.8667395,417.252418 25.7277974,416.976728 27.6865782,418.303563 C28.5042056,418.07571 29.3816286,417.962413 30.2533868,417.958636 C31.1238861,417.962413 32.0013092,418.07571 32.8201954,418.303563 C34.7777173,416.976728 35.6368869,417.252418 35.6368869,417.252418 C36.1964487,418.664225 35.8445983,419.706558 35.7388543,419.965883 C36.3959775,420.682802 36.7931467,421.59799 36.7931467,422.717114 C36.7931467,426.656076 34.3956544,427.522799 32.1114591,427.776458 C32.4796747,428.093061 32.8076068,428.718713 32.8076068,429.675444 C32.8076068,431.045709 32.7950182,432.151615 32.7950182,432.487729 C32.7950182,432.76216 32.9794407,433.08128 33.4999779,432.981201 C37.5711201,431.622265 40.5061442,427.782123 40.5061442,423.253387 C40.5061442,417.590421 35.9150942,413 30.2521279,413" id="Fill-1"></path>
                </g>
            </g>
        </g>
    </g>
</svg>