<?xml version="1.0" encoding="utf-8"?>
<!-- Generator: Adobe Illustrator 20.1.0, SVG Export Plug-In . SVG Version: 6.00 Build 0)  -->
<svg version="1.1" id="Calque_1" xmlns="http://www.w3.org/2000/svg" xmlns:xlink="http://www.w3.org/1999/xlink" x="0px" y="0px"
	 viewBox="0 0 380 150" style="enable-background:new 0 0 380 150;" xml:space="preserve">
<style type="text/css">
	.st0{fill:#F09BF5;}
	.st1{fill:#424B98;}
	.st2{fill:#6E79D6;}
	.st3{fill:#748DEF;}
	.st4{fill:#5B7FEF;}
</style>
<path class="st0" d="M191.6,6.4c0,0,29.4,15.9,37.5,35.1L190,103.1l-36.9-58.6C153.1,44.4,160.3,24.8,191.6,6.4z"/>
<g>
	<path class="st1" d="M117.4,86.8c-1.1-0.1-4.9,0-23.2,0c0,0-9.8,53.4,93,59.2C187.2,146,168.1,90.8,117.4,86.8z"/>
	<path class="st2" d="M191.6,78.1c0,0-7.2-28.7-64.1-56.8c0,0-2.5,23.2,2.5,41.3C130,62.5,169.1,132.8,191.6,78.1z"/>
	<path class="st3" d="M103.9,51.6c0,0,68.3,17.5,76.3,18.9c0,0,31.1,9.6,38.4,35.9c0,0,8.9,37.4-24.1,39.6c0,0-32.1,1.9-53.6-18.3
		C140.8,127.6,106.3,96.2,103.9,51.6z"/>
</g>
<g>
	<path class="st1" d="M260.8,86.8c1.1-0.1,2.9,0,22.3,0c0,0,9.8,53.4-93,59.2C190,146,210.1,90.8,260.8,86.8z"/>
	<path class="st2" d="M185.7,78.1c0,0,7.2-28.7,64.1-56.8c0,0,2.5,23.2-2.5,41.3C247.2,62.5,208.1,132.8,185.7,78.1z"/>
	<path class="st4" d="M273.4,51.6c0,0-68.3,17.5-76.3,18.9c0,0-31.1,9.6-38.4,35.9c0,0-8.9,37.4,24.1,39.6c0,0,32.1,1.9,53.6-18.3
		C236.5,127.6,271,96.2,273.4,51.6z"/>
</g>
<path class="st0" d="M321.1,72.7c0,0-16.9,13.6,5.6,55.7c0,0,6.8,12.9-5.9,0c0,0-9.4-6-1.1,8.6c0,0,13.3,18.6,22.2,2
	c0,0,3.3-11.9-11.9-36.5c0,0-7.6-18.3,4.6-26.2c0,0,3.7-5,0-10.3c0,0-14.6-4-12.6-25.2c0,0,6.6-33.5,0-40.2c0,0-13.6-5.3-19.9,16.3
	c0,0-3.3,11.3,6.6,1.3c0,0,8-9.3,3.7,2C312.4,20.3,304.1,63.4,321.1,72.7z"/>
<path class="st0" d="M57.2,72.7c0,0,16.9,13.6-5.6,55.7c0,0-6.8,12.9,5.9,0c0,0,9.4-6,1.1,8.6c0,0-13.3,18.6-22.2,2
	c0,0-3.3-11.9,11.9-36.5c0,0,7.6-18.3-4.6-26.2c0,0-3.7-5,0-10.3c0,0,14.6-4,12.6-25.2c0,0-6.6-33.5,0-40.2c0,0,13.6-5.3,19.9,16.3
	c0,0,3.3,11.3-6.6,1.3c0,0-8-9.3-3.7,2C65.8,20.3,74.1,63.4,57.2,72.7z"/>
</svg>
