<?xml version="1.0" encoding="utf-8"?>
<!-- Generator: Adobe Illustrator 20.1.0, SVG Export Plug-In . SVG Version: 6.00 Build 0)  -->
<svg version="1.1" id="Calque_1" xmlns="http://www.w3.org/2000/svg" xmlns:xlink="http://www.w3.org/1999/xlink" x="0px" y="0px"
	 viewBox="0 0 1000 150" style="enable-background:new 0 0 1000 150;" xml:space="preserve">
<style type="text/css">
	.st0{fill:#F09BF5;}
	.st1{fill:#424B98;}
	.st2{fill:#6E79D6;}
	.st3{fill:#748DEF;}
	.st4{fill:#5B7FEF;}
</style>
<g>
	<path class="st0" d="M162.6,8.4c0,0,29.4,15.9,37.5,35.1L161,105.1l-36.9-58.6C124.1,46.4,131.3,26.8,162.6,8.4z"/>
	<g>
		<path class="st1" d="M88.4,88.8c-1.1-0.1-4.9,0-23.2,0c0,0-9.8,53.4,93,59.2C158.2,148,139.1,92.8,88.4,88.8z"/>
		<path class="st2" d="M162.6,80.1c0,0-7.2-28.7-64.1-56.8c0,0-2.5,23.2,2.5,41.3C101,64.5,140.1,134.8,162.6,80.1z"/>
		<path class="st3" d="M74.9,53.6c0,0,68.3,17.5,76.3,18.9c0,0,31.1,9.6,38.4,35.9c0,0,8.9,37.4-24.1,39.6c0,0-32.1,1.9-53.6-18.3
			C111.8,129.6,77.3,98.2,74.9,53.6z"/>
	</g>
	<g>
		<path class="st1" d="M231.8,88.8c1.1-0.1,2.9,0,22.3,0c0,0,9.8,53.4-93,59.2C161,148,181.1,92.8,231.8,88.8z"/>
		<path class="st2" d="M156.7,80.1c0,0,7.2-28.7,64.1-56.8c0,0,2.5,23.2-2.5,41.3C218.2,64.5,179.1,134.8,156.7,80.1z"/>
		<path class="st4" d="M244.4,53.6c0,0-68.3,17.5-76.3,18.9c0,0-31.1,9.6-38.4,35.9c0,0-8.9,37.4,24.1,39.6c0,0,32.1,1.9,53.6-18.3
			C207.5,129.6,242,98.2,244.4,53.6z"/>
	</g>
	<path class="st0" d="M972.1,74.7c0,0-16.9,13.6,5.6,55.7c0,0,6.8,12.9-5.9,0c0,0-9.4-6-1.1,8.6c0,0,13.3,18.6,22.2,2
		c0,0,3.3-11.9-11.9-36.5c0,0-7.6-18.3,4.6-26.2c0,0,3.7-5,0-10.3c0,0-14.6-4-12.6-25.2c0,0,6.6-33.5,0-40.2c0,0-13.6-5.3-19.9,16.3
		c0,0-3.3,11.3,6.6,1.3c0,0,8-9.3,3.7,2C963.4,22.3,955.1,65.4,972.1,74.7z"/>
	<path class="st0" d="M28.2,74.7c0,0,16.9,13.6-5.6,55.7c0,0-6.8,12.9,5.9,0c0,0,9.4-6,1.1,8.6c0,0-13.3,18.6-22.2,2
		c0,0-3.3-11.9,11.9-36.5c0,0,7.6-18.3-4.6-26.2c0,0-3.7-5,0-10.3c0,0,14.6-4,12.6-25.2c0,0-6.6-33.5,0-40.2c0,0,13.6-5.3,19.9,16.3
		c0,0,3.3,11.3-6.6,1.3c0,0-8-9.3-3.7,2C36.8,22.3,45.1,65.4,28.2,74.7z"/>
	<g>
		<path class="st1" d="M303.8,63.9h6.6v15.6h0.3L326,63.9h8.9l-17.3,17l18.4,19.9h-9.2l-16-18.1h-0.4v18.1h-6.6V63.9z"/>
		<path class="st1" d="M357.2,63.9h5.7l15.9,36.9h-7.5l-3.4-8.4h-16l-3.3,8.4h-7.4L357.2,63.9z M365.5,86.7l-5.7-15l-5.8,15H365.5z"
			/>
		<path class="st1" d="M388.8,63.9h10l9.9,25.9l10-25.9h9.9v36.9h-6.3V70.1h-0.1l-11.2,30.7h-4.6l-11.2-30.7H395v30.7h-6.3V63.9z"/>
		<path class="st1" d="M454.6,63.9h5.7l15.9,36.9h-7.5l-3.4-8.4h-16l-3.3,8.4h-7.4L454.6,63.9z M462.9,86.7l-5.7-15l-5.8,15H462.9z"
			/>
		<path class="st1" d="M504.1,71.8c-0.7-1-1.6-1.7-2.8-2.2c-1.2-0.5-2.4-0.7-3.7-0.7c-0.8,0-1.5,0.1-2.2,0.3
			c-0.7,0.2-1.4,0.5-1.9,0.8c-0.6,0.4-1,0.9-1.4,1.5c-0.3,0.6-0.5,1.3-0.5,2.2c0,1.3,0.4,2.2,1.3,2.9c0.9,0.7,1.9,1.2,3.2,1.7
			c1.3,0.5,2.7,1,4.2,1.4c1.5,0.5,2.9,1.1,4.2,1.9c1.3,0.8,2.4,1.9,3.2,3.2c0.9,1.3,1.3,3.1,1.3,5.3c0,2-0.4,3.7-1.1,5.2
			c-0.7,1.5-1.7,2.7-2.9,3.7c-1.2,1-2.7,1.7-4.3,2.2c-1.6,0.5-3.4,0.7-5.2,0.7c-2.3,0-4.5-0.4-6.6-1.1c-2.1-0.8-3.9-2.1-5.5-3.9
			l5-4.8c0.8,1.2,1.9,2.2,3.2,2.8c1.3,0.7,2.7,1,4.1,1c0.8,0,1.5-0.1,2.3-0.3c0.8-0.2,1.5-0.5,2.1-0.9c0.6-0.4,1.1-0.9,1.5-1.6
			c0.4-0.6,0.6-1.4,0.6-2.2c0-1.4-0.4-2.4-1.3-3.1c-0.9-0.7-1.9-1.3-3.2-1.9c-1.3-0.5-2.7-1-4.2-1.4c-1.5-0.5-2.9-1.1-4.2-1.9
			c-1.3-0.8-2.4-1.8-3.2-3.1c-0.9-1.3-1.3-3-1.3-5.2c0-1.9,0.4-3.6,1.2-5c0.8-1.4,1.8-2.5,3.1-3.5s2.7-1.6,4.4-2.1
			c1.6-0.5,3.3-0.7,5-0.7c1.9,0,3.8,0.3,5.7,0.9c1.8,0.6,3.5,1.6,4.9,2.9L504.1,71.8z"/>
		<path class="st1" d="M551.2,87.2c0,2.2-0.4,4.2-1.1,6c-0.8,1.8-1.8,3.3-3.1,4.6c-1.3,1.3-2.9,2.2-4.7,2.9c-1.8,0.7-3.8,1-5.9,1
			c-2.1,0-4.1-0.3-5.9-1c-1.8-0.7-3.4-1.6-4.7-2.9c-1.3-1.3-2.4-2.8-3.1-4.6c-0.7-1.8-1.1-3.8-1.1-6V63.9h6.6V87
			c0,0.9,0.1,1.9,0.4,2.8c0.3,1,0.7,1.9,1.4,2.7c0.6,0.8,1.5,1.5,2.6,2.1c1.1,0.5,2.4,0.8,3.9,0.8s2.9-0.3,3.9-0.8
			c1.1-0.5,1.9-1.2,2.6-2.1c0.6-0.8,1.1-1.7,1.4-2.7c0.3-1,0.4-1.9,0.4-2.8V63.9h6.6V87.2z"/>
		<path class="st1" d="M572.6,69.8h-11.3v-5.9h29.2v5.9h-11.3v31h-6.6V69.8z"/>
		<path class="st1" d="M600.7,63.9h12.8c1.8,0,3.5,0.2,5.1,0.5c1.7,0.3,3.1,0.9,4.4,1.7c1.3,0.8,2.3,1.9,3.1,3.2
			c0.8,1.4,1.1,3.1,1.1,5.2c0,2.7-0.7,4.9-2.2,6.7c-1.5,1.8-3.6,2.9-6.3,3.3l9.8,16.3h-7.9l-8.5-15.6h-4.8v15.6h-6.6V63.9z
			 M612.4,79.5c0.9,0,1.9,0,2.8-0.1c0.9-0.1,1.8-0.3,2.6-0.6s1.4-0.8,1.9-1.5c0.5-0.7,0.7-1.6,0.7-2.8c0-1.1-0.2-1.9-0.7-2.6
			c-0.5-0.7-1-1.2-1.8-1.5c-0.7-0.3-1.5-0.5-2.4-0.7c-0.9-0.1-1.7-0.2-2.6-0.2h-5.7v10H612.4z"/>
		<path class="st1" d="M651.2,63.9h5.7l15.9,36.9h-7.5l-3.4-8.4h-16l-3.3,8.4h-7.4L651.2,63.9z M659.6,86.7l-5.7-15l-5.8,15H659.6z"
			/>
		<path class="st1" d="M703.8,63.9h14.5c2.4,0,4.8,0.4,7,1.1c2.3,0.7,4.3,1.9,6,3.4c1.7,1.5,3.1,3.5,4.2,5.8c1,2.3,1.6,5,1.6,8.2
			c0,3.2-0.6,5.9-1.8,8.2c-1.2,2.3-2.7,4.2-4.6,5.7c-1.9,1.5-4,2.6-6.3,3.4c-2.3,0.7-4.6,1.1-6.8,1.1h-13.8V63.9z M715.3,94.8
			c2.1,0,4-0.2,5.8-0.7c1.8-0.5,3.4-1.2,4.8-2.2c1.4-1,2.4-2.3,3.2-3.9c0.8-1.6,1.2-3.5,1.2-5.8c0-2.2-0.3-4.1-1-5.7
			c-0.7-1.6-1.7-2.9-2.9-3.9c-1.2-1-2.7-1.7-4.4-2.2c-1.7-0.5-3.5-0.7-5.6-0.7h-6v25H715.3z"/>
		<path class="st1" d="M778.7,87.2c0,2.2-0.4,4.2-1.1,6c-0.8,1.8-1.8,3.3-3.1,4.6c-1.3,1.3-2.9,2.2-4.7,2.9c-1.8,0.7-3.8,1-5.9,1
			c-2.1,0-4.1-0.3-5.9-1c-1.8-0.7-3.4-1.6-4.7-2.9c-1.3-1.3-2.4-2.8-3.1-4.6c-0.7-1.8-1.1-3.8-1.1-6V63.9h6.6V87
			c0,0.9,0.1,1.9,0.4,2.8c0.3,1,0.7,1.9,1.4,2.7c0.6,0.8,1.5,1.5,2.6,2.1c1.1,0.5,2.4,0.8,3.9,0.8c1.6,0,2.9-0.3,3.9-0.8
			c1.1-0.5,1.9-1.2,2.6-2.1c0.6-0.8,1.1-1.7,1.4-2.7c0.3-1,0.4-1.9,0.4-2.8V63.9h6.6V87.2z"/>
		<path class="st1" d="M813.6,63.9h14.5c2.4,0,4.8,0.4,7,1.1c2.3,0.7,4.3,1.9,6,3.4c1.7,1.5,3.1,3.5,4.2,5.8c1,2.3,1.6,5,1.6,8.2
			c0,3.2-0.6,5.9-1.8,8.2c-1.2,2.3-2.7,4.2-4.6,5.7c-1.9,1.5-4,2.6-6.3,3.4c-2.3,0.7-4.6,1.1-6.8,1.1h-13.8V63.9z M825.1,94.8
			c2.1,0,4-0.2,5.8-0.7c1.8-0.5,3.4-1.2,4.8-2.2c1.4-1,2.4-2.3,3.2-3.9c0.8-1.6,1.2-3.5,1.2-5.8c0-2.2-0.3-4.1-1-5.7
			c-0.7-1.6-1.7-2.9-2.9-3.9c-1.2-1-2.7-1.7-4.4-2.2c-1.7-0.5-3.5-0.7-5.6-0.7h-6v25H825.1z"/>
		<path class="st1" d="M859,63.9h24.4v5.9h-17.9v9.1h16.9v5.9h-16.9v10h18.8v5.9H859V63.9z"/>
		<path class="st1" d="M892.3,63.9h7.6l10.1,27.9l10.4-27.9h7.1l-14.9,36.9h-5.7L892.3,63.9z"/>
	</g>
</g>
</svg>
