<?xml version="1.0" encoding="UTF-8" standalone="no"?>
<svg width="11px" height="16px" viewBox="0 0 11 16" version="1.1" xmlns="http://www.w3.org/2000/svg" xmlns:xlink="http://www.w3.org/1999/xlink">
    <!-- Generator: Sketch 41.2 (35397) - http://www.bohemiancoding.com/sketch -->
    <title>pencil</title>
    <desc>Created with Sketch.</desc>
    <defs></defs>
    <g id="Page-1" stroke="none" stroke-width="1" fill="none" fill-rule="evenodd">
        <g id="showreel" transform="translate(-89.000000, -1012.000000)" fill="#FFFFFF">
            <g id="FOOTER" transform="translate(70.000000, 994.000000)">
                <g id="close">
                    <g id="pencil" transform="translate(19.000000, 18.000000)">
                        <g id="Group">
                            <path d="M8.63502222,4.93155556 L5.44017778,3.08711111 C5.37688889,3.05066667 5.296,3.07235556 5.25973333,3.13546667 L0.238044444,11.8330667 C0.201422222,11.8961778 0.170488889,12.0067556 0.168533333,12.0796444 L0.0746666667,15.8798222 C0.072,15.9891556 0.145244444,16.0316444 0.238755556,15.9745778 L3.48284444,13.9928889 C3.54506667,13.9548444 3.62506667,13.8728889 3.66168889,13.8096 L8.6832,5.11217778 C8.71946667,5.04888889 8.69813333,4.968 8.63502222,4.93155556 Z M3.04693333,13.7296 L1.48497778,14.6835556 C1.45404444,14.7024 1.41155556,14.6938667 1.3888,14.6650667 C1.31324444,14.5694222 1.20248889,14.4561778 1.05511111,14.3712 C0.907555556,14.2858667 0.753955556,14.2465778 0.633244444,14.2288 C0.597155556,14.2238222 0.568533333,14.1914667 0.569244444,14.1550222 L0.614755556,12.3253333 C0.615644444,12.2892444 0.628266667,12.2700444 0.644622222,12.2819556 C0.654577778,12.2888889 0.664711111,12.2958222 0.675555556,12.3020444 C0.8592,12.408 1.0992,12.3553778 1.27928889,12.1888 C1.30613333,12.1640889 1.32337778,12.1717333 1.32462222,12.208 C1.33493333,12.4908444 1.53191111,12.7962667 1.856,12.9834667 C2.18026667,13.1706667 2.54293333,13.1882667 2.79324444,13.0558222 C2.82542222,13.0387556 2.84053333,13.0499556 2.83271111,13.0855111 C2.77866667,13.3248 2.85315556,13.5589333 3.03662222,13.6648889 C3.04728889,13.6711111 3.05831111,13.6764444 3.06933333,13.6817778 C3.08782222,13.6901333 3.07786667,13.7107556 3.04693333,13.7296 Z" id="Shape"></path>
                            <path d="M9.224,0.344711111 L9.11804444,0.283377778 C8.2016,-0.245511111 7.07733333,-0.0128 6.60604444,0.8032 L5.75306667,2.28071111 C5.71662222,2.34364444 5.73813333,2.42471111 5.80142222,2.46097778 L8.99644444,4.3056 C9.05937778,4.34204444 9.14008889,4.32035556 9.17688889,4.25724444 C9.17688889,4.25724444 9.55857778,3.59555556 10.0298667,2.77973333 C10.5006222,1.96391111 10.1402667,0.8736 9.224,0.344711111 Z" id="Shape"></path>
                        </g>
                    </g>
                </g>
            </g>
        </g>
    </g>
</svg>