<?xml version="1.0" encoding="UTF-8" standalone="no"?>
<svg width="21px" height="20px" viewBox="0 0 21 20" version="1.1" xmlns="http://www.w3.org/2000/svg" xmlns:xlink="http://www.w3.org/1999/xlink">
    <!-- Generator: Sketch 41.2 (35397) - http://www.bohemiancoding.com/sketch -->
    <title>Page 1</title>
    <desc>Created with Sketch.</desc>
    <defs></defs>
    <g id="Page-1" stroke="none" stroke-width="1" fill="none" fill-rule="evenodd">
        <g id="Profile" transform="translate(-234.000000, -735.000000)" fill="#6E79D6">
            <g id="Group-5" transform="translate(214.000000, 291.000000)">
                <g id="Profile-Info">
                    <path d="M33.2503458,458.301521 C33.637621,457.084371 33.8589212,455.811895 33.9142462,454.539419 L38.9211618,454.539419 C38.8105118,456.42047 38.0912863,458.218534 36.9017981,459.656985 C35.7399723,459.048409 34.5228216,458.605809 33.2503458,458.301521 L33.2503458,458.301521 Z M31.8118949,461.510373 C32.2268326,460.818811 32.5864454,460.099585 32.8907331,459.352697 C33.9972337,459.60166 35.0760719,459.961272 36.0995851,460.48686 C34.6887967,461.814661 32.9183956,462.616874 31.0096819,462.838174 L31.8118949,461.510373 Z M27.1369295,459.352697 C27.4412172,460.099585 27.8008299,460.818811 28.2157676,461.510373 L29.0179806,462.838174 C27.0539419,462.616874 25.3112033,461.759336 23.95574,460.48686 C24.9515906,459.988935 26.0304288,459.60166 27.1369295,459.352697 L27.1369295,459.352697 Z M28.2157676,446.461964 C27.8008299,447.153527 27.4412172,447.872752 27.1369295,448.61964 C26.0304288,448.370678 24.9515906,448.011065 23.9280775,447.485477 C25.2835408,446.213001 27.0539419,445.355463 29.0179806,445.134163 L28.2157676,446.461964 Z M32.8907331,448.61964 C32.5864454,447.872752 32.2268326,447.153527 31.8118949,446.461964 L31.0096819,445.134163 C32.9737206,445.355463 34.7164592,446.213001 36.0995851,447.485477 C35.0760719,447.983402 33.9972337,448.370678 32.8907331,448.61964 L32.8907331,448.61964 Z M28.2710927,448.813278 C28.5200553,448.204703 28.824343,447.596127 29.1839557,447.042877 L30.0414938,445.604426 L30.8990318,447.042877 C31.2586445,447.62379 31.5352697,448.204703 31.8118949,448.813278 C30.5947441,448.951591 29.4329184,448.951591 28.2710927,448.813278 L28.2710927,448.813278 Z M27.219917,453.432918 C27.275242,452.215768 27.4965422,451.026279 27.8561549,449.864454 C28.5753804,449.975104 29.2946058,450.030429 30.0138313,450.030429 C30.7330567,450.030429 31.4522822,449.975104 32.1438451,449.864454 C32.5311203,451.026279 32.724758,452.215768 32.780083,453.432918 L27.219917,453.432918 Z M31.7565698,459.159059 C31.5076072,459.767635 31.2033195,460.37621 30.8437068,460.929461 L30.0138313,462.367911 L29.1562932,460.929461 C28.7966805,460.348548 28.5200553,459.767635 28.2434302,459.159059 C29.4329184,459.020747 30.5947441,459.020747 31.7565698,459.159059 L31.7565698,459.159059 Z M27.8561549,458.107884 C27.4688797,456.946058 27.275242,455.75657 27.219917,454.539419 L32.780083,454.539419 C32.724758,455.728907 32.5034578,456.946058 32.1438451,458.107884 C30.7330567,457.886584 29.2946058,457.886584 27.8561549,458.107884 L27.8561549,458.107884 Z M38.9211618,453.432918 L33.9142462,453.432918 C33.8589212,452.160443 33.637621,450.887967 33.2503458,449.643154 C34.4951591,449.366528 35.7123098,448.896266 36.8741355,448.28769 C38.0636238,449.726141 38.7828492,451.496542 38.9211618,453.432918 L38.9211618,453.432918 Z M23.153527,448.315353 C24.3153527,448.923928 25.5325035,449.366528 26.7773167,449.670816 C26.3900415,450.915629 26.1687414,452.188105 26.1134163,453.460581 L21.1065007,453.460581 C21.2448133,451.496542 21.9640387,449.726141 23.153527,448.315353 L23.153527,448.315353 Z M21.1065007,454.539419 L26.1134163,454.539419 C26.1687414,455.811895 26.3900415,457.084371 26.7773167,458.301521 C25.5325035,458.578147 24.3153527,459.020747 23.153527,459.656985 C21.9640387,458.246196 21.2448133,456.475795 21.1065007,454.539419 L21.1065007,454.539419 Z M37.4273859,460.735823 C39.1147994,458.882434 40.0276625,456.53112 40.0276625,454.013831 C40.0276625,451.441217 39.0594744,449.117566 37.4827109,447.347165 C37.4550484,447.29184 37.3997234,447.236515 37.3443983,447.208852 C35.5186722,445.244813 32.9183956,444 30.0414938,444 L30.0138313,444 L29.9861687,444 C27.1092669,444 24.5089903,445.244813 22.6832642,447.208852 C22.6279391,447.236515 22.6002766,447.29184 22.5726141,447.347165 C20.9958506,449.117566 20,451.46888 20,454.041494 C20,456.614108 20.9681881,458.965422 22.5726141,460.735823 C22.6002766,460.763485 22.6279391,460.818811 22.6832642,460.846473 C24.4813278,462.755187 27.1092669,464 30.0138313,464 C32.6970954,464 35.2143845,462.948824 37.0954357,461.067773 C37.2060858,460.957123 37.3167358,460.846473 37.4273859,460.735823 L37.4273859,460.735823 Z" id="Page-1"></path>
                </g>
            </g>
        </g>
    </g>
</svg>